<svg xmlns="http://www.w3.org/2000/svg" viewBox="0 0 316.67 170.9"><defs><style>.cls-1{fill:#fff;}.cls-2{fill:#d51f4a;}</style></defs><title>Recurso 1</title><g id="Capa_2" data-name="Capa 2"><g id="Capa_1-2" data-name="Capa 1"><path class="cls-1" d="M89.05,101.27h11.17v42H89.05Zm45.52-.68a13.28,13.28,0,0,1,6.68,1.56,12.78,12.78,0,0,1,4.41,4.07,17.38,17.38,0,0,1,2.43,5.67,26.75,26.75,0,0,1,.76,6.34v25H137.68l.08-25.1a6.3,6.3,0,0,0-.5-2.52,7.26,7.26,0,0,0-1.38-2.11,6.61,6.61,0,0,0-2.11-1.47,6.08,6.08,0,0,0-2.56-.55,6.33,6.33,0,0,0-4.7,2,6.46,6.46,0,0,0-1.93,4.67v25.1H113.41v-25.1a6.31,6.31,0,0,0-.51-2.52,6.59,6.59,0,0,0-3.57-3.54,7,7,0,0,0-2.73-.5,6.58,6.58,0,0,1-.75-1.25c-.45-.84-.95-1.75-1.51-2.76-.62-1.16-1.38-2.5-2.27-4l.08-.17a12.64,12.64,0,0,1,8-2.84,12.94,12.94,0,0,1,7.65,2.09,14.44,14.44,0,0,1,4.53,5.16,8.66,8.66,0,0,1,.67-1,16.43,16.43,0,0,1,5.34-4.66A13.08,13.08,0,0,1,134.57,100.59Z"/><path class="cls-2" d="M176.67,100.59a20.74,20.74,0,0,1,8.4,1.73,22,22,0,0,1,11.55,11.54,21,21,0,0,1,1.72,8.49,22,22,0,0,1-.5,4.7l-.09.17H176.42l-5.37-8.57H187a12.45,12.45,0,0,0-3.9-5.79,9.7,9.7,0,0,0-6.43-2.27,10.07,10.07,0,0,0-4.28.92,10.94,10.94,0,0,0-5.79,6.15,12.35,12.35,0,0,0-.84,4.64,11.55,11.55,0,0,0,.75,4,12,12,0,0,0,2.18,3.72,12.66,12.66,0,0,0,3.45,2.81,9.12,9.12,0,0,0,4.53,1.13,13.06,13.06,0,0,0,4.16-.63,7.75,7.75,0,0,0,3.57-2.82l.08-.08.17.08,9.74,4.29-.16.17a21,21,0,0,1-7.69,6.61,21.5,21.5,0,0,1-9.87,2.37,21.73,21.73,0,0,1-8.52-1.68,21.47,21.47,0,0,1-6.93-4.62,22.12,22.12,0,0,1-4.66-6.89,20.72,20.72,0,0,1-1.72-8.39,21,21,0,0,1,1.72-8.49,22.19,22.19,0,0,1,4.66-6.88,21.9,21.9,0,0,1,6.93-4.66A21.24,21.24,0,0,1,176.67,100.59Z"/><path class="cls-2" d="M243,84.47v58.79H231.73l.08-21.08a10.43,10.43,0,0,0-1-4.45,12.43,12.43,0,0,0-2.52-3.66,11.18,11.18,0,0,0-3.69-2.43,11.9,11.9,0,0,0-4.58-.88,11.59,11.59,0,0,0-4.54.88,11,11,0,0,0-3.65,2.48,12.53,12.53,0,0,0-2.48,3.69,11.64,11.64,0,0,0,0,9.07,12.14,12.14,0,0,0,2.48,3.66,12,12,0,0,0,3.65,2.47,11.11,11.11,0,0,0,4.54.93,16.89,16.89,0,0,0,2.35-.17,7.25,7.25,0,0,0,2.19-.67h.16l4.12,7.56-.08.08a16,16,0,0,1-10.08,3.19,21.53,21.53,0,0,1-15.37-6.3,22,22,0,0,1-4.66-6.89,21.23,21.23,0,0,1,0-16.79,22.06,22.06,0,0,1,4.66-6.89,21.53,21.53,0,0,1,15.37-6.3q8.56,0,13.1,6.38V84.47Z"/><path class="cls-2" d="M251.29,84.47h11.17v9.82H251.29Zm0,58.79v-42h11.17v42Z"/><path class="cls-2" d="M316,101.27v42H305v-21a11.31,11.31,0,0,0-.92-4.55,11.74,11.74,0,0,0-2.56-3.7,12,12,0,0,0-3.78-2.49,11.68,11.68,0,0,0-4.5-.88,11.22,11.22,0,0,0-4.53.92,13,13,0,0,0-3.74,2.49,11.1,11.1,0,0,0-2.56,3.71,11.41,11.41,0,0,0-.93,4.59,10.92,10.92,0,0,0,.93,4.47,11.62,11.62,0,0,0,2.56,3.71,12.54,12.54,0,0,0,3.74,2.53,11.06,11.06,0,0,0,4.53.93,9.78,9.78,0,0,0,4.45-.93h.09v.17l4.2,7.48-.09.08a16.06,16.06,0,0,1-10.16,3.19,21.21,21.21,0,0,1-8.4-1.68,21.47,21.47,0,0,1-6.88-4.62,22,22,0,0,1-4.67-6.89,20.89,20.89,0,0,1-1.72-8.39,21.16,21.16,0,0,1,1.72-8.49,22.06,22.06,0,0,1,11.55-11.54,20.74,20.74,0,0,1,8.4-1.73,17,17,0,0,1,7.64,1.63,15.91,15.91,0,0,1,5.63,4.7v-5.65Z"/><path class="cls-2" d="M37.44,48a4.68,4.68,0,0,1,5.07-4.5A4.46,4.46,0,0,1,47,48.14a4.62,4.62,0,0,1-4.84,4.7A4.73,4.73,0,0,1,37.44,48Z"/><path class="cls-2" d="M50.8,48a4.68,4.68,0,0,1,5.07-4.5,4.47,4.47,0,0,1,4.52,4.65,4.62,4.62,0,0,1-4.84,4.7A4.72,4.72,0,0,1,50.8,48Z"/><path class="cls-2" d="M23.5,48a4.67,4.67,0,0,1,5.06-4.5,4.46,4.46,0,0,1,4.52,4.65,4.62,4.62,0,0,1-4.84,4.7A4.71,4.71,0,0,1,23.5,48Z"/><path class="cls-1" d="M152.21,21.69v59H136.76V51.09a15.78,15.78,0,0,0-1.29-6.38,16.59,16.59,0,0,0-15.21-9.93,15.58,15.58,0,0,0-6.37,1.3,18.44,18.44,0,0,0-5.25,3.49,15.57,15.57,0,0,0-3.59,5.2,16.09,16.09,0,0,0-1.3,6.45,15.39,15.39,0,0,0,1.3,6.28,16.42,16.42,0,0,0,3.59,5.2,17.82,17.82,0,0,0,5.25,3.55,15.58,15.58,0,0,0,6.37,1.3,13.94,13.94,0,0,0,6.25-1.29h.12v.23L132.52,77l-.12.12a22.56,22.56,0,0,1-14.26,4.48,29.63,29.63,0,0,1-11.79-2.36,30.21,30.21,0,0,1-9.67-6.48,31.24,31.24,0,0,1-6.55-9.67,29.16,29.16,0,0,1-2.41-11.79,29.52,29.52,0,0,1,2.41-11.91,30.94,30.94,0,0,1,16.22-16.21,29.16,29.16,0,0,1,11.79-2.41A23.91,23.91,0,0,1,128.87,23a22.41,22.41,0,0,1,7.89,6.6V21.69Z"/><path class="cls-1" d="M206.74,24.05l-1.41,2.36-6,10.72L199.2,37a16.93,16.93,0,0,0-14.15-1.24,15.56,15.56,0,0,0-4.83,2.83,17.2,17.2,0,0,0-3.6,4.3,15.32,15.32,0,0,0-2,5.31V80.64h-16V21.69h16v7.66q6.26-8.59,18.28-8.6a30.26,30.26,0,0,1,13.68,3.3Z"/><path class="cls-1" d="M236.81,58.12l12.74,8.37-.12.12A30.29,30.29,0,0,1,223.14,81.7a29.46,29.46,0,0,1-11.91-2.42A30.79,30.79,0,0,1,195,63.07a29.93,29.93,0,0,1,0-23.58,30.79,30.79,0,0,1,16.21-16.21,29.46,29.46,0,0,1,11.91-2.42A30.28,30.28,0,0,1,249.43,36l.12.11L236.7,44.44l-.12-.12a17.38,17.38,0,0,0-5.48-7.07,13,13,0,0,0-8-2.71,13.3,13.3,0,0,0-6,1.36,15,15,0,0,0-4.77,3.65,17.93,17.93,0,0,0-3.19,5.31A17.52,17.52,0,0,0,208,51.28a17.1,17.1,0,0,0,1.18,6.37,16.77,16.77,0,0,0,3.19,5.13,14.39,14.39,0,0,0,10.73,4.65,14,14,0,0,0,8-2.41,15.25,15.25,0,0,0,5.48-6.78l.12-.24Z"/><path class="cls-1" d="M285.78,20.75a29.16,29.16,0,0,1,11.79,2.41,30.88,30.88,0,0,1,16.21,16.21,29.53,29.53,0,0,1,2.42,11.91,30.41,30.41,0,0,1-.71,6.6l-.12.24H285.43l-7.55-12h22.4A17.56,17.56,0,0,0,294.8,38a13.68,13.68,0,0,0-9-3.18,14.3,14.3,0,0,0-6,1.29,15.76,15.76,0,0,0-4.9,3.46,16.09,16.09,0,0,0-3.24,5.17,17.78,17.78,0,0,0-1.18,6.52,16.23,16.23,0,0,0,1.06,5.58A17,17,0,0,0,274.58,62,17.57,17.57,0,0,0,279.41,66a12.89,12.89,0,0,0,6.37,1.58,18.39,18.39,0,0,0,5.84-.88,11,11,0,0,0,5-4l.12-.12.23.12,13.68,6-.24.24a29.28,29.28,0,0,1-10.79,9.27,30.12,30.12,0,0,1-13.85,3.33,30.43,30.43,0,0,1-12-2.36,30.1,30.1,0,0,1-9.72-6.48,31.07,31.07,0,0,1-6.55-9.67,29.16,29.16,0,0,1-2.41-11.79,29.52,29.52,0,0,1,2.41-11.91,30.81,30.81,0,0,1,16.27-16.21A29.94,29.94,0,0,1,285.78,20.75Z"/><path class="cls-1" d="M197.1,170.71v-9.56l-4,9.56h-.93l-4-9.56v9.56H187V160h1.67l3.91,9.14,3.9-9.14h1.67v10.74Z"/><path class="cls-1" d="M214.83,170.71l-1.56-3.62h-5l-1.57,3.62h-1.13L210.18,160h1.2L216,170.71Zm-4.05-9.52-2.1,4.93h4.17Z"/><path class="cls-1" d="M227.5,166.7l3,4h-1.33l-3.62-4.87c3,0,4-.52,4-2.46,0-1.78-1.1-2.44-3.6-2.44h-1.52v9.77h-1.07V160h2.66c3.37,0,4.63,1.22,4.63,3.46C230.68,165.33,229.57,166.48,227.5,166.7Z"/><path class="cls-1" d="M244.38,170.71l-3.58-4.65-1.39,1.72v2.93h-1.08V160h1.08v6.18l5-6.18h1.35l-4.24,5.23,4.24,5.51Z"/><path class="cls-1" d="M253,170.71V160h5.88v1h-4.8v3.86h4.64v1h-4.64v4h4.8v1Z"/><path class="cls-1" d="M269.48,160.94v9.77h-1.07v-9.77H266v-1h6v1Z"/><path class="cls-1" d="M279.26,170.71V160h1.08v10.74Z"/><path class="cls-1" d="M296.14,170.71l-6.4-9.45v9.45h-1.08V160h1.46l6,8.91V160h1.07v10.74Z"/><path class="cls-1" d="M311.07,170.9a5.65,5.65,0,0,1-5.85-5.58,5.56,5.56,0,0,1,5.7-5.54,5.3,5.3,0,0,1,5.09,3.05h-1.2a4.22,4.22,0,0,0-3.8-2.06,4.57,4.57,0,1,0,0,9.14,4.47,4.47,0,0,0,4.34-3.18h-6v-1h7.3A5.55,5.55,0,0,1,311.07,170.9Z"/><path class="cls-1" d="M91.48,170.71h-2.9V160h2.53a7.43,7.43,0,0,1,4.1.84,5,5,0,0,1,2.45,4.57C97.66,168.47,95.68,170.71,91.48,170.71Zm3.14-9.07a6.46,6.46,0,0,0-3.46-.7h-1.5v8.8h1.5a5.85,5.85,0,0,0,3.87-1,4.34,4.34,0,0,0,1.54-3.45A4.15,4.15,0,0,0,94.62,161.64Z"/><path class="cls-1" d="M105.52,170.71V160h1.08v10.74Z"/><path class="cls-1" d="M120.3,170.9a5.64,5.64,0,0,1-5.84-5.58,5.56,5.56,0,0,1,5.7-5.54,5.32,5.32,0,0,1,5.09,3.05H124a4.21,4.21,0,0,0-3.8-2.06,4.57,4.57,0,1,0,0,9.14,4.49,4.49,0,0,0,4.35-3.18h-6v-1h7.3A5.54,5.54,0,0,1,120.3,170.9Z"/><path class="cls-1" d="M133.72,170.71V160h1.08v10.74Z"/><path class="cls-1" d="M145.65,160.94v9.77h-1.07v-9.77h-2.46v-1h6v1Z"/><path class="cls-1" d="M163,170.71l-1.55-3.62h-5l-1.57,3.62h-1.13L158.37,160h1.2l4.63,10.74Zm-4-9.52-2.11,4.93H161Z"/><path class="cls-1" d="M171.58,170.71V160h1.08v9.77h4.45v1Z"/><path class="cls-1" d="M67.19,16.52H58.78c-5.19,0-10.56,0-15.83-.07a5.79,5.79,0,0,1-3-1C35.89,12.69,31.81,9.78,27.86,7L22.78,3.38c-.47-.34-1-.64-1.56-1L17.43,0V16.51c-.64,0-1.25,0-1.84,0A13.52,13.52,0,0,0,5,20.15a17.78,17.78,0,0,0-5,13.3c.26,12.3.18,68.07.14,81.21v1.82H11.47v-1.82c0-10,0-34.61,0-53.78V57.81c0-10,0-18.21,0-21.9s.12-5.72.78-6.43,2.41-.78,5.63-.78H29.23V22.79c1.47,1,2.86,2,4.22,3.05a14.77,14.77,0,0,0,9.25,2.92c5.71-.12,11.53-.1,17.33-.07l5.93,0c3.37,0,4.23.48,4.23,4.82q0,15.49,0,31c0,4.45-.78,4.87-4.39,4.87H25.25v12.2h7.36q17.39,0,34.74,0c8.4,0,14.27-6.46,14.29-15.67q0-16.81,0-33.63C81.62,22.88,75.82,16.55,67.19,16.52Z"/></g></g></svg>